<svg width="176" height="20" viewBox="0 0 176 20" xmlns="http://www.w3.org/2000/svg">
    <path d="M9.423.64C4.147.64.145 4.56.003 9.8L0 10.141c0 5.355 3.99 9.39 9.284 9.39 2.703 0 4.692-.736 6.653-2.458a.982.982 0 0 0 .34-.741c0-.501-.451-.942-.97-.942a.917.917 0 0 0-.601.229c-1.695 1.426-3.282 2.033-5.317 2.033-3.978 0-7.093-3.321-7.093-7.566C2.296 5.8 5.411 2.49 9.39 2.49c1.862 0 3.472.607 5.066 1.9.162.122.373.19.624.19.602 0 1.053-.44 1.053-1.026 0-.479-.29-.758-.417-.853-1.85-1.42-3.79-2.061-6.292-2.061zm16.589.196c-.62 0-1.081.451-1.081 1.053v16.4c0 .602.462 1.053 1.08 1.053.591 0 1.054-.462 1.054-1.053V1.89c0-.591-.463-1.053-1.053-1.053zm19.04 9.819H39.38V2.797h5.64c2.942 0 4.692 1.454 4.692 3.885.005 2.328-1.756 3.877-4.408 3.968l-.25.005zm-5.673 1.739h5.289l4.937 6.302c.34.462.674.647 1.16.647.478 0 .996-.363.996-.943 0-.295-.1-.507-.418-.908l-4.33-5.46.909-.28c1.816-.557 3.978-1.917 3.978-5.21 0-1.549-.496-2.853-1.432-3.817C49.298 1.583 47.51.97 45.297.97h-6.97c-.613 0-1.082.463-1.082 1.081v16.24c0 .601.463 1.053 1.081 1.053.591 0 1.053-.463 1.053-1.054v-5.895zm29.634-1.74h-5.667V2.798h5.64c2.941 0 4.69 1.454 4.69 3.885.006 2.328-1.76 3.877-4.412 3.968l-.251.005zm-5.667 1.74h5.288l4.937 6.302c.34.462.674.647 1.16.647.478 0 .996-.363.996-.943 0-.295-.1-.507-.417-.908l-4.33-5.46.908-.28c1.816-.557 3.98-1.917 3.98-5.21 0-1.549-.497-2.848-1.433-3.817-1.17-1.142-2.96-1.756-5.17-1.756h-6.972c-.613 0-1.08.463-1.08 1.081v16.24c0 .601.461 1.053 1.08 1.053.59 0 1.053-.463 1.053-1.054v-5.895zM85.908.836c-.612 0-1.08.451-1.08 1.053v9.68c0 5.121 2.718 7.94 7.661 7.94 4.992 0 7.746-2.88 7.746-8.107V1.889c0-.591-.464-1.053-1.054-1.053-.619 0-1.08.451-1.08 1.053v9.68c0 3.85-2.029 6.057-5.557 6.057-3.5 0-5.583-2.318-5.583-6.197V1.89c0-.591-.463-1.053-1.053-1.053zm23.866 14.589c-.54 0-.97.412-.97.942 0 .311.15.602.396.78l.011.005c2.046 1.522 4.447 2.33 6.949 2.33 3.9 0 6.324-1.985 6.324-5.183 0-2.742-1.56-4.124-5.75-5.143l-.626-.152-.583-.152c-2.714-.736-3.945-1.531-3.945-3.397 0-1.8 1.577-3.02 3.828-3.02 1.616 0 3.203.518 4.841 1.583.168.1.335.144.541.144.541 0 .97-.412.97-.935a.915.915 0 0 0-.392-.785l-.037-.024c-1.783-1.187-3.633-1.727-5.867-1.727-3.545 0-6.018 2.062-6.018 5.015 0 2.617 1.194 3.901 4.786 4.935l.587.162.309.08.928.224.568.148c2.47.677 3.726 1.492 3.726 3.323 0 1.91-1.649 3.159-4.106 3.159-2.157 0-4.024-.68-5.868-2.145-.1-.073-.268-.167-.602-.167zM151.098 0h-.479c-.875 0-1.493.368-1.945 1.098l-5.265 8.565-5.239-8.538C137.775.48 137.13 0 136.198 0h-.48c-1.209 0-2.167.958-2.167 2.167v15.716c0 1.18.93 2.11 2.112 2.11s2.14-.93 2.14-2.11V8.086l3.744 5.773c.451.674 1.014 1.098 1.8 1.098.792 0 1.355-.424 1.806-1.098l3.8-5.857v9.83c0 1.181.958 2.168 2.14 2.168 1.209 0 2.167-.96 2.167-2.168V2.167A2.144 2.144 0 0 0 151.098 0zm14.427 16.043h-3.578V3.705h3.578c3.632 0 6.168 2.536 6.168 6.17 0 3.71-2.48 6.168-6.168 6.168zm0-15.931h-5.523c-1.209 0-2.167.958-2.167 2.167v15.38c0 1.21.958 2.168 2.167 2.168h5.523c6.089 0 10.327-4.16 10.471-9.571l.004-.343c0-5.55-4.28-9.801-10.475-9.801z" fill="#2C2420" fill-rule="evenodd"/>
</svg>
